<svg width="107" height="40" viewBox="0 0 107 40" fill="none" xmlns="http://www.w3.org/2000/svg">
<path d="M94.8613 11.925C98.9863 13.164 103.374 15.116 104.611 16.263C106.108 17.651 106.861 19.505 106.861 21.806C106.861 27.628 102.268 30.933 88.2693 35.186C67.1813 41.593 61.2823 40.838 68.7893 32.694L72.8653 28.272L68.2233 27.636C65.6703 27.286 56.5573 26.996 47.9713 26.991C39.3863 26.986 26.0853 26.53 18.4143 25.977C2.73832 24.847 -0.467668 23.665 0.0513297 19.211C0.646331 14.101 2.67332 13.807 33.3613 14.384L61.3613 14.911L58.2033 12.205C56.4663 10.717 54.7713 8.55801 54.4363 7.40701C53.6673 4.76801 57.2353 -2.16922e-06 59.9783 -2.04932e-06C61.0633 -2.00189e-06 67.6673 2.176 74.6553 4.837C81.6433 7.497 90.7363 10.686 94.8613 11.925Z" fill="black"/>
</svg>
