<svg xmlns="http://www.w3.org/2000/svg" xmlns:xlink="http://www.w3.org/1999/xlink" width="107" zoomAndPan="magnify" viewBox="0 0 80.25 74.249996" height="99" preserveAspectRatio="xMidYMid meet" version="1.0"><defs><g/><clipPath id="b04f8f4085"><path d="M 0.527344 0.304688 L 49.40625 0.304688 L 49.40625 50.742188 L 0.527344 50.742188 Z M 0.527344 0.304688 " clip-rule="nonzero"/></clipPath><clipPath id="6ef7c71df9"><path d="M 43.566406 25.4375 L 50.660156 25.4375 L 50.660156 42.90625 L 43.566406 42.90625 Z M 43.566406 25.4375 " clip-rule="nonzero"/></clipPath><clipPath id="f4d48dcbea"><rect x="0" width="24" y="0" height="47"/></clipPath><clipPath id="b77e321d34"><rect x="0" width="51" y="0" height="51"/></clipPath></defs><g transform="matrix(1, 0, 0, 1, 14, 11)"><g clip-path="url(#b77e321d34)"><g clip-path="url(#b04f8f4085)"><path fill="#00b7ed" d="M 38.707031 46.335938 C 38.480469 46.472656 38.253906 46.5625 38.03125 46.65625 C 37.816406 46.742188 37.601562 46.828125 37.386719 46.917969 L 38.101562 46.5 C 38.21875 46.429688 38.339844 46.363281 38.457031 46.289062 L 38.804688 46.066406 C 39.105469 45.871094 39.417969 45.6875 39.707031 45.5 C 39.769531 45.457031 39.855469 45.492188 39.847656 45.5 C 39.488281 45.800781 39.074219 46.121094 38.707031 46.335938 Z M 36.785156 47.597656 C 36.710938 47.664062 36.625 47.730469 36.527344 47.800781 C 36.429688 47.867188 36.320312 47.9375 36.195312 48.011719 C 36.066406 48.082031 35.925781 48.160156 35.769531 48.238281 C 35.609375 48.320312 35.4375 48.40625 35.238281 48.484375 L 34.425781 48.808594 C 34.15625 48.914062 33.878906 49.003906 33.605469 49.101562 L 33.191406 49.242188 C 33.050781 49.289062 32.910156 49.328125 32.769531 49.367188 C 32.492188 49.449219 32.210938 49.535156 31.929688 49.609375 C 31.363281 49.742188 30.796875 49.886719 30.222656 49.980469 L 29.792969 50.054688 L 29.578125 50.09375 C 29.507812 50.105469 29.433594 50.109375 29.363281 50.121094 C 29.074219 50.15625 28.785156 50.191406 28.496094 50.226562 C 26.773438 50.402344 25.042969 50.347656 23.355469 50.125 C 23.25 50.117188 23.148438 50.09375 23.050781 50.070312 C 22.953125 50.046875 22.859375 50.023438 22.765625 49.996094 C 22.578125 49.945312 22.394531 49.886719 22.207031 49.835938 C 22.40625 49.828125 22.59375 49.804688 22.789062 49.789062 C 22.886719 49.78125 22.988281 49.773438 23.089844 49.773438 C 23.195312 49.773438 23.304688 49.773438 23.421875 49.773438 C 23.757812 49.78125 24.128906 49.792969 24.5 49.816406 C 24.871094 49.824219 25.242188 49.839844 25.578125 49.863281 L 25.769531 49.875 L 25.964844 49.878906 L 26.347656 49.886719 C 26.605469 49.886719 26.863281 49.894531 27.117188 49.886719 C 27.375 49.875 27.632812 49.863281 27.890625 49.851562 L 28.273438 49.828125 L 28.65625 49.789062 L 29.425781 49.703125 C 29.679688 49.664062 29.933594 49.617188 30.1875 49.574219 C 30.695312 49.496094 31.195312 49.371094 31.699219 49.253906 L 31.886719 49.207031 L 32.070312 49.15625 L 32.8125 48.9375 C 32.933594 48.898438 33.058594 48.863281 33.179688 48.820312 C 33.664062 48.644531 34.152344 48.484375 34.625 48.277344 C 34.859375 48.179688 35.097656 48.082031 35.332031 47.976562 L 36.027344 47.640625 C 36.140625 47.585938 36.257812 47.53125 36.371094 47.472656 L 36.710938 47.289062 L 37.367188 46.929688 C 37.222656 47.136719 37.078125 47.34375 36.785156 47.597656 Z M 29.710938 48.40625 C 29.804688 48.304688 30.109375 48.179688 30.46875 47.976562 C 30.910156 48 31.171875 48.015625 31.433594 48.027344 C 31.082031 48.160156 30.761719 48.308594 30.363281 48.414062 C 30.21875 48.449219 29.675781 48.441406 29.710938 48.40625 Z M 33.898438 47.929688 C 34.183594 47.792969 34.429688 47.664062 34.695312 47.550781 C 34.777344 47.515625 34.96875 47.484375 35.132812 47.464844 C 35.292969 47.445312 35.429688 47.441406 35.40625 47.488281 C 35.390625 47.515625 35.347656 47.558594 35.285156 47.609375 C 35.222656 47.660156 35.144531 47.71875 35.050781 47.773438 C 34.867188 47.882812 34.644531 48 34.453125 48.078125 C 34.109375 48.226562 33.671875 48.253906 32.882812 48.394531 C 33.289062 48.214844 33.613281 48.0625 33.898438 47.929688 Z M 18.3125 49.21875 L 17.949219 49.054688 L 18.402344 49.179688 C 18.371094 49.195312 18.339844 49.207031 18.3125 49.21875 Z M 9.9375 40.882812 C 9.863281 40.804688 9.816406 40.710938 9.757812 40.625 L 10.039062 40.863281 C 10.097656 40.945312 10.152344 41.035156 10.214844 41.117188 C 10.117188 41.042969 10.015625 40.96875 9.9375 40.882812 Z M 9.425781 44.226562 C 9.324219 44.152344 9.230469 44.082031 9.140625 44.007812 C 9.097656 43.972656 9.054688 43.9375 9.015625 43.902344 C 8.976562 43.867188 8.941406 43.832031 8.910156 43.796875 C 8.75 43.625 8.628906 43.464844 8.523438 43.308594 C 8.472656 43.230469 8.421875 43.152344 8.371094 43.074219 C 8.320312 42.996094 8.273438 42.917969 8.21875 42.835938 L 7.644531 42.269531 L 8.160156 42.769531 L 8.320312 42.921875 L 8.488281 43.066406 C 8.597656 43.164062 8.707031 43.261719 8.816406 43.355469 C 9.035156 43.546875 9.238281 43.734375 9.433594 43.910156 C 9.703125 44.160156 9.832031 44.417969 10.03125 44.667969 C 9.839844 44.527344 9.625 44.375 9.425781 44.226562 Z M 6.042969 35.359375 C 6.011719 35.429688 5.867188 35.359375 5.722656 35.246094 C 5.648438 35.191406 5.578125 35.121094 5.523438 35.058594 C 5.464844 35 5.421875 34.941406 5.40625 34.90625 C 5.320312 34.695312 5.234375 34.5 5.148438 34.3125 C 5.101562 34.21875 5.0625 34.125 5.023438 34.035156 C 4.984375 33.945312 4.945312 33.855469 4.90625 33.769531 C 4.828125 33.59375 4.746094 33.429688 4.667969 33.265625 C 4.589844 33.105469 4.519531 32.945312 4.445312 32.785156 C 4.371094 32.628906 4.296875 32.476562 4.226562 32.320312 L 4.171875 32.207031 L 4.121094 32.085938 C 4.089844 32.007812 4.054688 31.929688 4.023438 31.851562 C 3.957031 31.691406 3.890625 31.53125 3.828125 31.367188 C 3.796875 31.285156 3.761719 31.203125 3.734375 31.117188 C 3.707031 31.03125 3.679688 30.945312 3.652344 30.855469 C 3.570312 30.582031 3.503906 29.9375 3.546875 29.722656 C 3.601562 29.371094 3.78125 29.386719 3.800781 28.96875 C 3.808594 28.839844 3.824219 28.734375 3.839844 28.65625 C 3.855469 28.578125 3.871094 28.523438 3.886719 28.492188 C 3.921875 28.425781 3.957031 28.445312 3.992188 28.527344 C 4.011719 28.566406 4.03125 28.625 4.050781 28.691406 C 4.070312 28.761719 4.089844 28.84375 4.117188 28.933594 C 4.164062 29.117188 4.214844 29.339844 4.265625 29.578125 C 4.285156 29.679688 4.308594 29.785156 4.328125 29.886719 C 4.355469 29.988281 4.378906 30.089844 4.402344 30.1875 C 4.449219 30.386719 4.496094 30.578125 4.535156 30.75 C 4.570312 30.925781 4.613281 31.074219 4.648438 31.199219 C 4.679688 31.324219 4.707031 31.417969 4.722656 31.476562 C 4.769531 31.632812 4.816406 31.777344 4.863281 31.917969 C 4.90625 32.058594 4.960938 32.1875 5.007812 32.308594 C 5.097656 32.554688 5.183594 32.773438 5.257812 32.972656 C 5.425781 33.359375 5.554688 33.671875 5.65625 33.964844 C 5.757812 34.226562 5.863281 34.546875 5.9375 34.816406 C 5.953125 34.882812 5.972656 34.949219 5.984375 35.007812 C 6.003906 35.066406 6.015625 35.121094 6.027344 35.167969 C 6.046875 35.261719 6.054688 35.332031 6.042969 35.359375 Z M 4.175781 37.875 L 4 37.476562 L 4.261719 37.867188 Z M 3.464844 26.78125 C 3.421875 27.359375 3.332031 27.707031 3.144531 27.355469 C 3.039062 27.164062 2.960938 26.90625 2.910156 26.597656 C 2.867188 26.292969 2.851562 25.9375 2.847656 25.5625 C 2.855469 25.1875 2.894531 24.789062 2.9375 24.394531 C 2.988281 24 3.066406 23.605469 3.132812 23.234375 C 3.214844 22.871094 3.304688 22.457031 3.378906 22.027344 C 3.425781 21.816406 3.472656 21.597656 3.515625 21.382812 C 3.5625 21.171875 3.59375 20.953125 3.644531 20.75 C 4.25 17.792969 5.464844 14.957031 7.179688 12.46875 C 8.894531 9.976562 11.113281 7.828125 13.664062 6.183594 C 13.757812 6.125 13.855469 6.0625 13.957031 5.996094 C 14.058594 5.933594 14.164062 5.871094 14.273438 5.804688 C 14.488281 5.675781 14.707031 5.539062 14.910156 5.414062 C 15.324219 5.175781 15.683594 4.957031 15.824219 4.820312 C 16.117188 4.5625 16.394531 4.347656 16.660156 4.179688 C 16.925781 4.011719 17.183594 3.898438 17.433594 3.8125 C 17.558594 3.769531 17.679688 3.734375 17.804688 3.707031 C 17.929688 3.6875 18.050781 3.671875 18.175781 3.660156 C 18.421875 3.644531 18.671875 3.648438 18.925781 3.671875 C 19.074219 3.6875 19.398438 3.644531 19.707031 3.601562 C 19.863281 3.582031 20.011719 3.5625 20.140625 3.554688 C 20.269531 3.546875 20.375 3.550781 20.429688 3.566406 C 20.851562 3.699219 20.949219 3.929688 21.171875 4.121094 L 20.59375 4.273438 L 20.304688 4.347656 L 20.019531 4.441406 C 19.636719 4.5625 19.253906 4.671875 18.878906 4.808594 C 18.757812 4.847656 18.640625 4.886719 18.515625 4.921875 C 18.390625 4.960938 18.261719 4.992188 18.128906 5.039062 C 17.863281 5.125 17.5625 5.21875 17.214844 5.335938 C 16.984375 5.421875 16.738281 5.539062 16.484375 5.671875 C 16.417969 5.707031 16.355469 5.742188 16.289062 5.777344 C 16.226562 5.8125 16.160156 5.851562 16.09375 5.890625 C 15.964844 5.96875 15.832031 6.046875 15.695312 6.128906 C 15.5625 6.210938 15.421875 6.28125 15.285156 6.363281 C 15.148438 6.445312 15.007812 6.523438 14.863281 6.597656 C 14.71875 6.667969 14.570312 6.734375 14.421875 6.792969 C 14.273438 6.859375 14.125 6.917969 13.96875 6.964844 C 13.910156 6.980469 13.785156 7.066406 13.609375 7.191406 C 13.566406 7.222656 13.519531 7.257812 13.472656 7.292969 C 13.425781 7.332031 13.378906 7.375 13.328125 7.414062 C 13.222656 7.5 13.113281 7.59375 13 7.691406 C 12.882812 7.789062 12.761719 7.886719 12.644531 7.992188 C 12.527344 8.097656 12.40625 8.203125 12.289062 8.3125 C 12.171875 8.414062 12.054688 8.519531 11.941406 8.613281 C 11.832031 8.710938 11.726562 8.8125 11.628906 8.894531 C 10.453125 9.902344 9.375 11.050781 8.425781 12.28125 C 8.300781 12.429688 8.191406 12.589844 8.078125 12.746094 C 7.960938 12.90625 7.847656 13.0625 7.734375 13.21875 C 7.515625 13.539062 7.308594 13.863281 7.09375 14.183594 C 6.996094 14.347656 6.894531 14.511719 6.796875 14.675781 L 6.648438 14.921875 C 6.597656 15.003906 6.546875 15.085938 6.503906 15.167969 C 6.410156 15.335938 6.316406 15.503906 6.226562 15.667969 C 6.132812 15.835938 6.039062 16 5.957031 16.171875 C 5.851562 16.386719 5.746094 16.597656 5.640625 16.808594 C 5.617188 16.859375 5.589844 16.910156 5.566406 16.964844 L 5.496094 17.125 C 5.453125 17.234375 5.40625 17.339844 5.359375 17.445312 C 5.316406 17.554688 5.273438 17.660156 5.226562 17.765625 L 5.164062 17.925781 L 5.105469 18.085938 C 5.027344 18.304688 4.953125 18.519531 4.878906 18.734375 C 4.796875 18.949219 4.742188 19.167969 4.675781 19.386719 C 4.617188 19.609375 4.550781 19.828125 4.492188 20.050781 C 4.445312 20.273438 4.394531 20.496094 4.34375 20.722656 C 4.316406 20.835938 4.292969 20.949219 4.269531 21.0625 C 4.25 21.179688 4.230469 21.292969 4.210938 21.410156 C 4.1875 21.546875 4.160156 21.6875 4.136719 21.828125 C 4.109375 21.96875 4.074219 22.109375 4.054688 22.25 C 4.007812 22.535156 3.957031 22.824219 3.902344 23.109375 C 3.871094 23.25 3.859375 23.394531 3.835938 23.535156 C 3.8125 23.675781 3.789062 23.820312 3.769531 23.957031 C 3.746094 24.097656 3.722656 24.238281 3.699219 24.375 C 3.683594 24.511719 3.667969 24.648438 3.652344 24.78125 C 3.566406 25.382812 3.527344 26.199219 3.464844 26.78125 Z M 5.367188 14.511719 C 5.417969 14.394531 5.476562 14.285156 5.53125 14.171875 C 5.644531 13.949219 5.757812 13.726562 5.882812 13.515625 C 6.0625 13.222656 6.261719 12.945312 6.457031 12.667969 C 6.550781 12.527344 6.660156 12.394531 6.761719 12.261719 L 7.074219 11.863281 C 6.929688 12.105469 6.78125 12.347656 6.628906 12.601562 C 6.488281 12.859375 6.339844 13.136719 6.175781 13.433594 C 6.085938 13.546875 6.007812 13.667969 5.925781 13.785156 C 5.84375 13.902344 5.761719 14.019531 5.683594 14.136719 C 5.601562 14.253906 5.519531 14.371094 5.441406 14.492188 L 5.214844 14.851562 C 5.265625 14.738281 5.316406 14.625 5.367188 14.511719 Z M 8.816406 8.730469 C 8.898438 8.640625 8.996094 8.585938 9.09375 8.519531 L 8.960938 8.667969 L 8.835938 8.824219 L 8.566406 9.035156 C 8.648438 8.929688 8.726562 8.816406 8.816406 8.730469 Z M 11.832031 7 C 11.84375 6.992188 11.886719 7.007812 11.917969 7.011719 C 11.675781 7.214844 11.433594 7.414062 11.191406 7.613281 C 11.179688 7.621094 11.128906 7.605469 11.09375 7.601562 C 11.335938 7.402344 11.582031 7.199219 11.832031 7 Z M 12.15625 4.855469 L 12.84375 4.421875 C 12.957031 4.351562 13.078125 4.285156 13.195312 4.21875 L 13.550781 4.023438 C 14.023438 3.753906 14.515625 3.527344 15 3.289062 C 14.984375 3.367188 15.085938 3.410156 14.929688 3.539062 C 14.738281 3.695312 14.535156 3.835938 14.320312 3.96875 L 14.160156 4.066406 L 13.996094 4.167969 C 13.886719 4.234375 13.777344 4.296875 13.664062 4.359375 C 13.554688 4.417969 13.4375 4.480469 13.324219 4.539062 C 13.207031 4.597656 13.09375 4.652344 12.980469 4.714844 C 12.75 4.835938 12.519531 4.953125 12.289062 5.070312 C 12.15625 5.136719 12.066406 5.140625 11.960938 5.183594 C 12.019531 5.070312 12.066406 4.914062 12.15625 4.855469 Z M 19.917969 1.605469 L 20.0625 1.632812 L 19.75 1.699219 Z M 24.179688 4.457031 C 24.164062 4.457031 24.144531 4.457031 24.128906 4.460938 C 24.136719 4.457031 24.144531 4.457031 24.15625 4.453125 C 24.15625 4.453125 24.167969 4.453125 24.179688 4.457031 Z M 24.734375 3.542969 C 24.863281 3.492188 25.082031 3.429688 25.335938 3.375 C 25.460938 3.34375 25.597656 3.316406 25.738281 3.289062 C 25.878906 3.265625 26.019531 3.25 26.160156 3.238281 C 26.4375 3.207031 26.703125 3.195312 26.902344 3.203125 C 27.121094 3.222656 27.523438 3.378906 27.457031 3.394531 C 27.339844 3.425781 27.210938 3.453125 27.085938 3.480469 C 27.019531 3.496094 26.957031 3.507812 26.890625 3.519531 L 26.695312 3.570312 C 26.4375 3.632812 26.183594 3.695312 25.953125 3.75 C 25.773438 3.726562 25.609375 3.722656 25.464844 3.714844 C 25.320312 3.710938 25.195312 3.703125 25.085938 3.699219 C 24.871094 3.6875 24.722656 3.679688 24.636719 3.65625 C 24.554688 3.640625 24.601562 3.59375 24.734375 3.542969 Z M 46.472656 19.390625 C 46.519531 19.582031 46.582031 19.824219 46.636719 20.035156 C 46.683594 20.25 46.710938 20.4375 46.703125 20.511719 C 46.679688 20.726562 46.570312 20.71875 46.484375 20.765625 C 46.46875 20.59375 46.449219 20.417969 46.433594 20.246094 C 46.414062 20.039062 46.382812 19.839844 46.371094 19.664062 C 46.355469 19.484375 46.4375 19.476562 46.472656 19.390625 Z M 9.292969 12.320312 C 9.375 12.183594 9.460938 12.042969 9.550781 11.90625 C 9.707031 11.671875 9.871094 11.433594 10.042969 11.191406 C 10.226562 10.957031 10.417969 10.71875 10.621094 10.472656 C 10.828125 10.234375 11.058594 9.996094 11.304688 9.746094 C 11.332031 9.714844 11.363281 9.683594 11.394531 9.652344 C 11.429688 9.625 11.460938 9.59375 11.492188 9.5625 C 11.558594 9.503906 11.625 9.441406 11.695312 9.382812 C 11.832031 9.257812 11.972656 9.136719 12.117188 9.011719 C 12.320312 8.847656 12.511719 8.703125 12.683594 8.5625 C 12.769531 8.496094 12.855469 8.429688 12.933594 8.367188 C 13.015625 8.308594 13.097656 8.253906 13.171875 8.203125 C 13.476562 7.996094 13.71875 7.828125 13.921875 7.726562 C 14.230469 7.578125 14.421875 7.542969 14.523438 7.640625 C 12.53125 8.898438 10.761719 10.484375 9.292969 12.320312 Z M 8.007812 13.554688 C 8.023438 13.425781 8.046875 13.296875 8.066406 13.167969 C 8.253906 12.953125 8.464844 12.671875 8.609375 12.558594 C 8.640625 12.53125 8.644531 12.585938 8.632812 12.65625 C 8.617188 12.730469 8.589844 12.828125 8.546875 12.890625 C 8.40625 13.109375 8.191406 13.332031 8.007812 13.554688 Z M 4.488281 23.429688 C 4.488281 23.320312 4.492188 23.207031 4.5 23.097656 C 4.507812 22.984375 4.515625 22.871094 4.519531 22.757812 C 4.527344 22.644531 4.535156 22.53125 4.542969 22.417969 C 4.550781 22.304688 4.558594 22.191406 4.578125 22.078125 C 4.617188 21.785156 4.664062 21.523438 4.710938 21.296875 C 4.734375 21.183594 4.765625 21.078125 4.796875 20.984375 C 4.828125 20.886719 4.863281 20.800781 4.894531 20.722656 C 5.027344 20.402344 5.164062 20.203125 5.324219 20.117188 C 5.34375 20.105469 5.359375 20.09375 5.378906 20.085938 C 5.054688 21.316406 4.835938 22.589844 4.738281 23.894531 C 4.738281 23.90625 4.734375 23.917969 4.730469 23.929688 C 4.691406 24.066406 4.648438 24.207031 4.609375 24.347656 C 4.574219 24.492188 4.539062 24.632812 4.507812 24.765625 C 4.503906 24.65625 4.496094 24.542969 4.492188 24.433594 C 4.488281 24.320312 4.492188 24.210938 4.488281 24.097656 C 4.488281 23.875 4.488281 23.652344 4.488281 23.429688 Z M 9.617188 41.15625 C 9.429688 40.992188 9.246094 40.824219 9.058594 40.648438 C 9.046875 40.636719 9.027344 40.539062 9.011719 40.480469 C 9.097656 40.570312 9.191406 40.65625 9.285156 40.742188 C 9.378906 40.828125 9.472656 40.914062 9.566406 41.003906 C 9.582031 41.019531 9.601562 41.105469 9.617188 41.15625 Z M 43.097656 43.289062 C 42.957031 43.40625 42.832031 43.507812 42.722656 43.59375 C 42.609375 43.679688 42.511719 43.746094 42.429688 43.800781 C 42.34375 43.851562 42.269531 43.886719 42.210938 43.90625 C 41.980469 43.992188 41.972656 43.847656 42.167969 43.511719 C 42.285156 43.289062 42.519531 42.980469 42.78125 42.648438 C 43.027344 42.324219 43.285156 41.96875 43.503906 41.65625 L 42.988281 42.113281 L 42.707031 42.363281 C 42.609375 42.441406 42.511719 42.519531 42.414062 42.597656 L 41.828125 43.066406 C 41.628906 43.21875 41.425781 43.363281 41.226562 43.507812 C 41.5 43.082031 41.371094 42.953125 41.355469 42.734375 C 41.351562 42.628906 41.367188 42.492188 41.472656 42.292969 C 41.527344 42.191406 41.601562 42.074219 41.703125 41.929688 C 41.808594 41.789062 41.941406 41.625 42.097656 41.421875 C 42.371094 41.074219 42.601562 40.753906 42.828125 40.40625 C 42.71875 40.515625 42.613281 40.621094 42.503906 40.726562 C 42.390625 40.828125 42.277344 40.929688 42.171875 41.039062 C 42.015625 41.203125 41.863281 41.367188 41.703125 41.523438 L 41.214844 41.984375 L 40.972656 42.21875 L 40.71875 42.4375 L 40.207031 42.875 C 40.039062 43.019531 39.859375 43.15625 39.683594 43.296875 L 39.417969 43.503906 L 39.285156 43.605469 L 39.148438 43.703125 C 38.785156 43.964844 38.425781 44.234375 38.046875 44.472656 C 37.863281 44.59375 37.695312 44.730469 37.527344 44.871094 C 37.355469 45.003906 37.1875 45.144531 37.011719 45.273438 C 37.300781 45.195312 37.609375 45.117188 37.871094 45.046875 C 38.191406 44.972656 38.460938 44.9375 38.757812 44.878906 C 38.339844 45.179688 37.890625 45.5625 37.492188 45.753906 C 37.382812 45.808594 37.261719 45.867188 37.136719 45.929688 C 37.011719 45.992188 36.882812 46.058594 36.75 46.117188 C 36.480469 46.234375 36.203125 46.355469 35.953125 46.457031 C 35.445312 46.652344 35.035156 46.78125 34.972656 46.75 C 34.53125 46.511719 33.492188 46.917969 31.960938 47.347656 C 30.582031 47.730469 29.167969 47.96875 27.746094 48.078125 C 26.324219 48.183594 24.898438 48.164062 23.480469 48.019531 C 22.84375 47.9375 22.289062 47.851562 21.890625 47.714844 C 21.488281 47.589844 21.234375 47.464844 21.183594 47.332031 C 21.140625 47.222656 21.1875 47.125 21.3125 47.046875 C 21.433594 46.964844 21.636719 46.902344 21.902344 46.871094 C 22.085938 46.851562 22.285156 46.847656 22.492188 46.859375 C 22.699219 46.863281 22.917969 46.886719 23.136719 46.917969 C 23.574219 46.996094 24.035156 47.074219 24.46875 47.210938 C 24.644531 47.269531 24.839844 47.296875 25.035156 47.320312 C 25.234375 47.34375 25.4375 47.355469 25.632812 47.355469 C 25.726562 47.355469 25.824219 47.351562 25.914062 47.339844 C 26.007812 47.328125 26.097656 47.316406 26.179688 47.304688 C 26.347656 47.273438 26.492188 47.234375 26.609375 47.183594 C 26.839844 47.089844 26.449219 46.933594 26.300781 46.8125 C 26.269531 46.789062 25.972656 46.789062 25.882812 46.765625 C 25.773438 46.738281 25.679688 46.707031 25.601562 46.675781 C 25.523438 46.648438 25.464844 46.621094 25.417969 46.59375 C 25.394531 46.578125 25.375 46.566406 25.359375 46.554688 C 25.492188 46.558594 25.628906 46.558594 25.761719 46.558594 C 37.40625 46.558594 46.84375 37.121094 46.84375 25.476562 C 46.84375 23.867188 46.664062 22.300781 46.320312 20.792969 C 46.378906 20.816406 46.4375 20.835938 46.496094 20.875 C 46.492188 20.863281 46.492188 20.851562 46.492188 20.839844 C 46.582031 20.957031 46.675781 21.085938 46.761719 21.21875 C 46.863281 21.371094 46.960938 21.527344 47.058594 21.679688 C 47.15625 21.832031 47.253906 21.972656 47.347656 22.089844 C 47.441406 22.210938 47.523438 22.308594 47.605469 22.367188 C 47.757812 22.476562 47.890625 22.609375 48.019531 22.871094 C 48.160156 23.128906 48.261719 23.519531 48.375 24.148438 C 48.382812 24.203125 48.394531 24.253906 48.402344 24.308594 C 48.410156 24.359375 48.417969 24.40625 48.425781 24.457031 C 48.441406 24.550781 48.453125 24.640625 48.46875 24.71875 C 48.5 24.882812 48.53125 25.019531 48.558594 25.128906 C 48.621094 25.34375 48.683594 25.457031 48.746094 25.476562 C 48.871094 25.511719 48.988281 25.164062 49.082031 24.519531 C 49.117188 24.296875 49.136719 24.078125 49.160156 23.855469 C 49.183594 23.636719 49.210938 23.421875 49.234375 23.203125 C 49.246094 23.09375 49.253906 22.988281 49.261719 22.878906 L 49.285156 22.554688 C 49.300781 22.339844 49.3125 22.121094 49.328125 21.90625 C 49.34375 21.472656 49.347656 21.03125 49.347656 20.582031 C 49.335938 20.359375 49.328125 20.128906 49.3125 19.898438 C 49.296875 19.667969 49.289062 19.433594 49.257812 19.195312 C 49.195312 18.722656 49.140625 18.222656 49.019531 17.714844 C 48.964844 17.457031 48.910156 17.195312 48.839844 16.925781 C 48.761719 16.660156 48.683594 16.390625 48.59375 16.109375 C 48.226562 15 47.699219 13.789062 46.898438 12.507812 L 46.925781 12.605469 C 46.875 12.652344 46.875 12.800781 46.757812 12.714844 C 46.578125 12.589844 46.316406 12.300781 46.089844 12.085938 C 46.019531 11.824219 45.867188 11.496094 45.871094 11.347656 C 45.871094 11.253906 46.09375 11.449219 46.222656 11.515625 C 46.285156 11.601562 46.34375 11.695312 46.402344 11.785156 L 46.578125 12.058594 L 46.925781 12.605469 C 46.925781 12.605469 46.898438 12.515625 46.898438 12.511719 C 46.695312 12.199219 46.496094 11.882812 46.285156 11.570312 C 45.933594 11.125 45.578125 10.632812 45.214844 10.257812 C 45.078125 10.113281 44.914062 10 44.75 9.890625 C 44.582031 9.785156 44.40625 9.691406 44.253906 9.578125 C 44.097656 9.464844 43.957031 9.328125 43.855469 9.148438 C 43.75 8.96875 43.671875 8.75 43.648438 8.445312 C 43.644531 8.402344 43.585938 8.300781 43.492188 8.164062 C 43.449219 8.097656 43.390625 8.019531 43.332031 7.9375 C 43.265625 7.855469 43.195312 7.773438 43.117188 7.683594 C 42.964844 7.503906 42.792969 7.3125 42.621094 7.128906 C 42.535156 7.035156 42.445312 6.949219 42.355469 6.867188 C 42.269531 6.785156 42.183594 6.707031 42.105469 6.636719 C 39.6875 4.46875 36.828125 2.769531 33.734375 1.691406 C 32.191406 1.152344 30.589844 0.765625 28.964844 0.539062 C 27.335938 0.316406 25.695312 0.253906 24.058594 0.347656 C 21.074219 0.515625 18.113281 1.257812 15.378906 2.492188 C 12.648438 3.726562 10.136719 5.449219 8.015625 7.558594 C 7.519531 8.0625 7.105469 8.636719 6.699219 9.203125 C 6.875 9.074219 7.058594 8.9375 7.238281 8.808594 C 7.414062 8.679688 7.59375 8.574219 7.742188 8.5 C 7.886719 8.425781 7.875 8.648438 7.851562 8.671875 C 7.546875 8.984375 7.269531 9.324219 6.984375 9.65625 C 6.914062 9.738281 6.839844 9.820312 6.773438 9.90625 L 6.570312 10.164062 L 6.167969 10.679688 C 6.097656 10.765625 6.035156 10.855469 5.972656 10.945312 L 5.78125 11.210938 L 5.402344 11.746094 L 4.875 12.578125 C 4.816406 12.667969 4.753906 12.761719 4.703125 12.855469 C 3.804688 14.359375 3.066406 15.957031 2.5 17.613281 C 2.425781 17.832031 2.324219 18.035156 2.226562 18.246094 C 2.128906 18.453125 2.03125 18.660156 1.941406 18.875 C 1.972656 18.667969 2 18.464844 2.03125 18.257812 L 2.054688 18.105469 C 2.066406 18.054688 2.078125 18 2.089844 17.949219 C 2.113281 17.847656 2.140625 17.746094 2.175781 17.640625 C 2.25 17.410156 2.328125 17.179688 2.410156 16.949219 C 2.5 16.71875 2.597656 16.492188 2.6875 16.265625 C 2.867188 15.808594 3.082031 15.371094 3.25 14.949219 C 3.285156 14.855469 3.320312 14.761719 3.355469 14.671875 C 3.394531 14.582031 3.429688 14.492188 3.464844 14.402344 C 3.535156 14.226562 3.597656 14.050781 3.660156 13.878906 C 3.78125 13.527344 3.917969 13.195312 4.066406 12.851562 C 3.664062 13.441406 3.277344 14.046875 2.960938 14.695312 C 1.324219 18.136719 0.488281 21.96875 0.527344 25.761719 C 0.53125 25.953125 0.53125 26.148438 0.53125 26.34375 L 0.535156 26.636719 L 0.535156 26.78125 L 0.542969 26.925781 C 0.558594 27.3125 0.578125 27.695312 0.609375 28.066406 C 0.65625 28.433594 0.710938 28.789062 0.785156 29.121094 C 0.816406 29.289062 0.867188 29.449219 0.917969 29.601562 C 0.972656 29.753906 1.03125 29.898438 1.09375 30.035156 L 1.039062 29.28125 L 1.023438 28.527344 C 1.003906 28.027344 1.027344 27.523438 1.042969 27.03125 C 1.042969 26.945312 1.046875 26.84375 1.050781 26.757812 C 1.0625 26.675781 1.074219 26.605469 1.085938 26.597656 C 1.179688 26.515625 1.296875 26.3125 1.375 26.535156 C 1.410156 26.644531 1.46875 26.957031 1.519531 27.25 C 1.566406 27.539062 1.601562 27.816406 1.597656 27.855469 C 1.546875 28.246094 1.542969 28.675781 1.550781 29.136719 C 1.5625 29.367188 1.585938 29.601562 1.613281 29.839844 C 1.625 29.960938 1.640625 30.082031 1.652344 30.207031 C 1.667969 30.328125 1.683594 30.453125 1.710938 30.578125 C 1.753906 30.824219 1.800781 31.078125 1.855469 31.332031 C 1.882812 31.460938 1.902344 31.589844 1.9375 31.714844 C 1.96875 31.84375 2 31.96875 2.035156 32.097656 C 2.101562 32.351562 2.164062 32.609375 2.238281 32.863281 C 2.316406 33.117188 2.394531 33.371094 2.472656 33.621094 C 2.578125 33.992188 2.707031 34.355469 2.742188 34.578125 C 2.78125 34.800781 2.738281 34.878906 2.542969 34.664062 C 2.324219 34.417969 2.25 34.457031 2.28125 34.699219 C 2.300781 34.820312 2.34375 34.992188 2.410156 35.203125 C 2.441406 35.3125 2.484375 35.421875 2.535156 35.546875 C 2.582031 35.667969 2.636719 35.796875 2.695312 35.933594 C 2.921875 36.488281 3.207031 37.023438 3.476562 37.566406 C 3.777344 38.089844 4.066406 38.625 4.402344 39.125 L 4.679688 39.550781 C 4.769531 39.695312 4.875 39.832031 4.96875 39.96875 L 5.265625 40.382812 C 5.363281 40.519531 5.460938 40.660156 5.570312 40.789062 L 6.199219 41.585938 L 6.867188 42.351562 C 7.773438 43.355469 8.757812 44.289062 9.808594 45.140625 L 10.609375 45.765625 L 11.4375 46.351562 C 11.574219 46.449219 11.71875 46.542969 11.859375 46.632812 L 12.289062 46.90625 C 12.433594 46.992188 12.574219 47.089844 12.71875 47.171875 L 13.160156 47.425781 L 13.601562 47.675781 C 13.746094 47.761719 13.902344 47.832031 14.050781 47.910156 L 14.503906 48.140625 C 14.65625 48.21875 14.804688 48.296875 14.960938 48.363281 L 15.886719 48.777344 C 16.203125 48.902344 16.519531 49.027344 16.832031 49.148438 C 18.101562 49.617188 19.410156 49.988281 20.734375 50.257812 C 22.0625 50.519531 23.410156 50.667969 24.757812 50.722656 L 25.769531 50.742188 L 26.777344 50.714844 L 27.03125 50.707031 C 27.113281 50.703125 27.199219 50.695312 27.28125 50.6875 L 28.289062 50.609375 C 28.457031 50.589844 28.625 50.566406 28.792969 50.546875 L 29.296875 50.480469 C 29.460938 50.457031 29.628906 50.4375 29.796875 50.40625 L 30.792969 50.222656 C 31.453125 50.074219 32.113281 49.925781 32.757812 49.730469 C 35.835938 48.832031 38.726562 47.339844 41.242188 45.371094 C 41.53125 45.140625 41.820312 44.917969 42.066406 44.683594 C 42.316406 44.453125 42.550781 44.234375 42.746094 44.019531 C 42.941406 43.800781 43.105469 43.597656 43.234375 43.410156 C 43.296875 43.316406 43.355469 43.230469 43.398438 43.144531 C 43.4375 43.074219 43.460938 43.003906 43.484375 42.9375 C 43.425781 42.992188 43.371094 43.046875 43.316406 43.097656 C 43.238281 43.164062 43.167969 43.226562 43.097656 43.289062 " fill-opacity="1" fill-rule="nonzero"/></g><path fill="#00b7ed" d="M 43.484375 42.9375 C 43.503906 42.914062 43.527344 42.894531 43.546875 42.875 C 43.539062 42.878906 43.496094 42.902344 43.496094 42.902344 C 43.492188 42.914062 43.488281 42.925781 43.484375 42.9375 " fill-opacity="1" fill-rule="nonzero"/><g clip-path="url(#6ef7c71df9)"><path fill="#00b7ed" d="M 50.652344 26.273438 C 50.632812 26.039062 50.601562 25.855469 50.5625 25.722656 C 50.484375 25.457031 50.371094 25.398438 50.25 25.59375 C 49.894531 26.164062 49.550781 26.738281 49.164062 27.15625 C 49.082031 27.242188 49 27.386719 48.914062 27.570312 C 48.871094 27.660156 48.832031 27.765625 48.785156 27.878906 C 48.738281 27.988281 48.6875 28.113281 48.640625 28.242188 C 48.589844 28.371094 48.542969 28.507812 48.492188 28.65625 C 48.441406 28.800781 48.398438 28.953125 48.339844 29.109375 C 48.222656 29.425781 48.113281 29.765625 47.996094 30.121094 C 47.867188 30.46875 47.746094 30.839844 47.617188 31.210938 C 47.546875 31.398438 47.476562 31.585938 47.410156 31.773438 C 47.339844 31.960938 47.28125 32.152344 47.203125 32.339844 C 46.921875 33.089844 46.632812 33.832031 46.371094 34.511719 C 46.257812 34.796875 46.222656 35.046875 46.144531 35.316406 C 46.253906 35.132812 46.363281 34.949219 46.46875 34.761719 C 46.523438 34.671875 46.578125 34.578125 46.632812 34.484375 C 46.660156 34.433594 46.6875 34.386719 46.714844 34.339844 C 46.738281 34.289062 46.765625 34.242188 46.789062 34.191406 C 46.996094 33.769531 47.210938 33.324219 47.386719 32.875 C 47.347656 33.066406 47.320312 33.257812 47.277344 33.449219 C 47.234375 33.640625 47.183594 33.832031 47.113281 34.039062 C 46.675781 35.324219 46.125 36.652344 45.386719 37.777344 C 45.238281 38 45.109375 38.195312 45 38.371094 C 44.890625 38.546875 44.789062 38.691406 44.710938 38.824219 C 44.550781 39.085938 44.457031 39.269531 44.417969 39.398438 C 44.332031 39.648438 44.472656 39.671875 44.703125 39.578125 C 45.265625 39.339844 45.511719 39.449219 45.378906 40 C 45.308594 40.273438 45.128906 40.644531 44.84375 41.136719 C 44.695312 41.378906 44.511719 41.640625 44.300781 41.933594 C 44.246094 42.007812 44.191406 42.082031 44.136719 42.160156 C 44.078125 42.234375 44.015625 42.308594 43.953125 42.386719 C 43.832031 42.535156 43.703125 42.691406 43.566406 42.851562 C 43.804688 42.679688 44.042969 42.5 44.273438 42.308594 C 44.511719 42.089844 44.746094 41.859375 44.964844 41.621094 C 45.015625 41.558594 45.070312 41.5 45.125 41.4375 C 45.171875 41.375 45.222656 41.308594 45.269531 41.246094 C 45.363281 41.113281 45.457031 40.984375 45.539062 40.847656 C 45.625 40.710938 45.703125 40.574219 45.777344 40.433594 C 45.847656 40.292969 45.90625 40.144531 45.960938 39.996094 C 46.0625 39.714844 46.15625 39.449219 46.230469 39.183594 C 46.304688 38.917969 46.371094 38.660156 46.433594 38.402344 C 46.464844 38.269531 46.5 38.144531 46.53125 38.011719 C 46.558594 37.878906 46.585938 37.746094 46.617188 37.613281 C 46.675781 37.339844 46.746094 37.066406 46.8125 36.773438 C 46.871094 36.515625 46.9375 36.28125 47.027344 36.046875 C 47.070312 35.929688 47.125 35.816406 47.175781 35.695312 C 47.226562 35.578125 47.28125 35.457031 47.34375 35.335938 C 47.410156 35.214844 47.480469 35.089844 47.558594 34.957031 C 47.597656 34.894531 47.636719 34.828125 47.679688 34.757812 C 47.722656 34.691406 47.765625 34.621094 47.808594 34.546875 C 47.894531 34.402344 47.992188 34.25 48.097656 34.089844 C 48.199219 33.929688 48.320312 33.761719 48.433594 33.574219 L 48.453125 33.457031 C 48.613281 33.25 48.757812 33.089844 48.820312 33.132812 C 48.855469 33.15625 48.867188 33.230469 48.847656 33.378906 C 48.839844 33.453125 48.824219 33.546875 48.800781 33.65625 C 48.777344 33.769531 48.746094 33.902344 48.695312 34.058594 C 48.628906 34.265625 48.558594 34.484375 48.484375 34.699219 C 48.445312 34.808594 48.410156 34.917969 48.371094 35.027344 C 48.328125 35.136719 48.285156 35.246094 48.242188 35.351562 C 48.152344 35.570312 48.066406 35.785156 47.980469 36 C 47.9375 36.109375 47.890625 36.214844 47.84375 36.320312 C 47.800781 36.421875 47.753906 36.527344 47.707031 36.628906 C 47.632812 36.808594 47.707031 36.902344 47.75 36.960938 C 47.765625 36.976562 47.933594 36.742188 48.007812 36.601562 C 49.515625 33.664062 50.433594 30.402344 50.648438 27.097656 C 50.679688 26.78125 50.667969 26.503906 50.652344 26.273438 " fill-opacity="1" fill-rule="nonzero"/></g><path fill="#00b7ed" d="M 43.546875 42.875 C 43.554688 42.867188 43.558594 42.859375 43.566406 42.851562 C 43.542969 42.867188 43.523438 42.882812 43.503906 42.898438 C 43.511719 42.894531 43.539062 42.878906 43.546875 42.875 " fill-opacity="1" fill-rule="nonzero"/><path fill="#00b7ed" d="M 38.480469 42.382812 C 37.746094 42.898438 36.996094 43.410156 36.203125 43.847656 C 35.816406 44.082031 35.40625 44.277344 35.007812 44.492188 C 34.808594 44.597656 34.601562 44.6875 34.398438 44.785156 C 34.195312 44.878906 33.996094 44.980469 33.789062 45.0625 C 33.546875 45.164062 33.3125 45.269531 33.082031 45.375 C 32.851562 45.472656 32.621094 45.566406 32.40625 45.664062 C 32.300781 45.710938 32.195312 45.757812 32.089844 45.804688 C 31.988281 45.84375 31.886719 45.886719 31.789062 45.925781 C 31.597656 46.003906 31.417969 46.082031 31.261719 46.152344 C 31.105469 46.226562 30.964844 46.28125 30.847656 46.332031 C 30.734375 46.382812 30.640625 46.425781 30.582031 46.460938 C 30.460938 46.53125 30.457031 46.566406 30.613281 46.542969 C 31.128906 46.480469 31.679688 46.332031 32.242188 46.179688 C 32.519531 46.089844 32.800781 46 33.082031 45.910156 C 33.222656 45.867188 33.359375 45.8125 33.496094 45.761719 C 33.632812 45.707031 33.769531 45.65625 33.902344 45.605469 C 34.226562 45.496094 34.539062 45.335938 34.855469 45.195312 L 34.859375 45.207031 C 36.265625 44.558594 37.628906 43.773438 38.832031 42.820312 C 39.007812 42.675781 39.214844 42.453125 39.367188 42.265625 C 39.519531 42.082031 39.605469 41.910156 39.5625 41.894531 C 39.453125 41.855469 38.828125 42.117188 38.480469 42.382812 " fill-opacity="1" fill-rule="nonzero"/><path fill="#00b7ed" d="M 42.9375 38.050781 C 42.859375 38.136719 42.777344 38.222656 42.6875 38.3125 C 42.492188 38.515625 42.292969 38.757812 42.085938 39.003906 C 41.867188 39.246094 41.652344 39.496094 41.449219 39.738281 C 41.28125 39.914062 41.035156 40.285156 41.070312 40.308594 C 41.144531 40.359375 41.324219 40.363281 41.554688 40.175781 C 41.765625 40.011719 41.976562 39.785156 42.210938 39.542969 C 42.269531 39.480469 42.328125 39.417969 42.390625 39.355469 C 42.417969 39.320312 42.449219 39.289062 42.480469 39.257812 C 42.511719 39.222656 42.539062 39.1875 42.570312 39.152344 C 42.691406 39.011719 42.816406 38.867188 42.945312 38.71875 C 43.007812 38.613281 43.074219 38.507812 43.132812 38.398438 C 43.191406 38.289062 43.25 38.175781 43.308594 38.0625 C 43.367188 37.953125 43.425781 37.839844 43.484375 37.730469 C 43.542969 37.617188 43.605469 37.507812 43.65625 37.390625 C 43.582031 37.472656 43.5 37.542969 43.417969 37.613281 C 43.339844 37.683594 43.261719 37.753906 43.179688 37.824219 C 43.101562 37.898438 43.019531 37.972656 42.9375 38.050781 " fill-opacity="1" fill-rule="nonzero"/><path fill="#00b7ed" d="M 45.6875 32.714844 C 45.585938 32.871094 45.46875 33.054688 45.445312 33.136719 C 45.40625 33.261719 45.371094 33.382812 45.335938 33.503906 C 45.304688 33.625 45.277344 33.746094 45.242188 33.859375 C 45.179688 34.09375 45.113281 34.324219 45.050781 34.558594 C 45.136719 34.453125 45.222656 34.347656 45.324219 34.226562 C 45.375 34.164062 45.429688 34.09375 45.492188 34.019531 C 45.554688 33.945312 45.621094 33.863281 45.691406 33.765625 C 45.785156 33.21875 45.882812 32.773438 45.882812 32.449219 C 45.882812 32.421875 45.789062 32.554688 45.6875 32.714844 " fill-opacity="1" fill-rule="nonzero"/><path fill="#00b7ed" d="M 43.382812 41.464844 C 43.367188 41.453125 43.265625 41.535156 43.203125 41.574219 C 43.304688 41.585938 43.410156 41.597656 43.511719 41.609375 C 43.464844 41.5625 43.4375 41.5 43.382812 41.464844 " fill-opacity="1" fill-rule="nonzero"/><path fill="#00b7ed" d="M 43.511719 41.609375 C 43.515625 41.613281 43.519531 41.617188 43.523438 41.621094 C 43.523438 41.617188 43.527344 41.617188 43.53125 41.617188 C 43.523438 41.628906 43.511719 41.640625 43.503906 41.65625 L 43.550781 41.613281 C 43.539062 41.613281 43.523438 41.609375 43.511719 41.609375 " fill-opacity="1" fill-rule="nonzero"/><path fill="#00b7ed" d="M 48.496094 33.503906 L 48.453125 33.457031 C 48.453125 33.457031 48.4375 33.558594 48.433594 33.566406 C 48.4375 33.558594 48.496094 33.503906 48.496094 33.503906 " fill-opacity="1" fill-rule="nonzero"/><g transform="matrix(1, 0, 0, 1, 14, 2)"><g clip-path="url(#f4d48dcbea)"><g fill="#ffffff" fill-opacity="1"><g transform="translate(0.213791, 34.727917)"><g><path d="M 7.421875 -22.671875 L 7.421875 -9.109375 C 7.421875 -7.753906 7.753906 -6.707031 8.421875 -5.96875 C 9.097656 -5.238281 10.082031 -4.875 11.375 -4.875 C 12.664062 -4.875 13.65625 -5.238281 14.34375 -5.96875 C 15.03125 -6.707031 15.375 -7.753906 15.375 -9.109375 L 15.375 -22.671875 L 20.890625 -22.671875 L 20.890625 -9.140625 C 20.890625 -7.117188 20.457031 -5.40625 19.59375 -4 C 18.738281 -2.601562 17.582031 -1.550781 16.125 -0.84375 C 14.675781 -0.132812 13.054688 0.21875 11.265625 0.21875 C 9.484375 0.21875 7.882812 -0.128906 6.46875 -0.828125 C 5.0625 -1.523438 3.945312 -2.578125 3.125 -3.984375 C 2.3125 -5.398438 1.90625 -7.117188 1.90625 -9.140625 L 1.90625 -22.671875 Z M 7.421875 -22.671875 "/></g></g></g></g></g></g></g></svg>