<svg xmlns="http://www.w3.org/2000/svg" xmlns:xlink="http://www.w3.org/1999/xlink" width="96" zoomAndPan="magnify" viewBox="0 0 72 72" height="96" preserveAspectRatio="xMidYMid meet" version="1.0"><defs><g/><clipPath id="285372dc64"><path d="M 0 0.0195312 L 69.742188 0.0195312 L 69.742188 71.980469 L 0 71.980469 Z M 0 0.0195312 " clip-rule="nonzero"/></clipPath><clipPath id="2553f218c3"><path d="M 61.40625 35.875 L 71.25 35.875 L 71.25 60.792969 L 61.40625 60.792969 Z M 61.40625 35.875 " clip-rule="nonzero"/></clipPath><clipPath id="39e9064e34"><rect x="0" width="34" y="0" height="66"/></clipPath></defs><g clip-path="url(#285372dc64)"><path fill="#00b7ed" d="M 54.476562 65.6875 C 54.152344 65.882812 53.828125 66.015625 53.511719 66.148438 C 53.203125 66.273438 52.898438 66.394531 52.589844 66.519531 L 53.609375 65.925781 C 53.777344 65.824219 53.949219 65.730469 54.117188 65.621094 L 54.613281 65.304688 C 55.042969 65.03125 55.488281 64.769531 55.898438 64.496094 C 55.992188 64.4375 56.113281 64.488281 56.101562 64.496094 C 55.585938 64.925781 54.996094 65.382812 54.476562 65.6875 Z M 51.730469 67.492188 C 51.625 67.585938 51.503906 67.679688 51.367188 67.78125 C 51.226562 67.878906 51.066406 67.972656 50.886719 68.078125 C 50.707031 68.183594 50.507812 68.292969 50.28125 68.40625 C 50.058594 68.519531 49.808594 68.644531 49.523438 68.757812 L 48.367188 69.222656 C 47.980469 69.371094 47.585938 69.5 47.191406 69.636719 L 46.601562 69.839844 C 46.40625 69.902344 46.203125 69.957031 46.003906 70.015625 C 45.605469 70.132812 45.207031 70.253906 44.804688 70.359375 C 43.996094 70.546875 43.191406 70.757812 42.371094 70.886719 L 41.757812 70.996094 L 41.449219 71.050781 C 41.347656 71.066406 41.242188 71.078125 41.140625 71.089844 C 40.730469 71.140625 40.320312 71.191406 39.90625 71.242188 C 37.445312 71.492188 34.980469 71.414062 32.574219 71.097656 C 32.421875 71.082031 32.277344 71.050781 32.136719 71.019531 C 31.996094 70.988281 31.859375 70.953125 31.726562 70.914062 C 31.460938 70.839844 31.203125 70.757812 30.929688 70.6875 C 31.21875 70.671875 31.484375 70.640625 31.765625 70.617188 C 31.902344 70.605469 32.042969 70.597656 32.195312 70.59375 C 32.34375 70.59375 32.5 70.59375 32.667969 70.59375 C 33.144531 70.605469 33.671875 70.625 34.203125 70.65625 C 34.730469 70.667969 35.261719 70.6875 35.742188 70.722656 L 36.019531 70.738281 L 36.292969 70.746094 L 36.839844 70.753906 C 37.207031 70.757812 37.574219 70.769531 37.941406 70.757812 C 38.308594 70.742188 38.671875 70.722656 39.039062 70.707031 L 39.589844 70.675781 L 40.136719 70.617188 L 41.230469 70.492188 C 41.59375 70.441406 41.957031 70.375 42.320312 70.3125 C 43.046875 70.199219 43.757812 70.019531 44.472656 69.851562 L 44.742188 69.789062 L 45.007812 69.710938 L 45.535156 69.558594 L 46.0625 69.402344 C 46.238281 69.347656 46.414062 69.296875 46.589844 69.234375 C 47.277344 68.988281 47.976562 68.757812 48.648438 68.460938 C 48.988281 68.320312 49.328125 68.179688 49.660156 68.03125 L 50.652344 67.554688 C 50.816406 67.472656 50.980469 67.394531 51.144531 67.3125 L 51.625 67.050781 L 52.5625 66.535156 C 52.355469 66.832031 52.152344 67.128906 51.730469 67.492188 Z M 41.636719 68.644531 C 41.769531 68.496094 42.207031 68.320312 42.722656 68.03125 C 43.351562 68.066406 43.722656 68.085938 44.09375 68.105469 C 43.597656 68.289062 43.140625 68.503906 42.570312 68.652344 C 42.363281 68.703125 41.585938 68.695312 41.636719 68.644531 Z M 47.613281 67.964844 C 48.019531 67.765625 48.375 67.585938 48.753906 67.421875 C 48.867188 67.371094 49.140625 67.328125 49.371094 67.300781 C 49.605469 67.269531 49.800781 67.269531 49.761719 67.335938 C 49.742188 67.375 49.679688 67.4375 49.589844 67.507812 C 49.503906 67.578125 49.390625 67.664062 49.257812 67.738281 C 48.996094 67.898438 48.675781 68.0625 48.402344 68.175781 C 47.914062 68.386719 47.289062 68.425781 46.164062 68.628906 C 46.746094 68.371094 47.203125 68.152344 47.613281 67.964844 Z M 25.375 69.804688 L 24.855469 69.566406 L 25.503906 69.75 C 25.460938 69.769531 25.417969 69.785156 25.375 69.804688 Z M 13.429688 57.914062 C 13.324219 57.796875 13.257812 57.664062 13.171875 57.542969 L 13.574219 57.878906 C 13.65625 58 13.734375 58.128906 13.824219 58.246094 C 13.6875 58.140625 13.539062 58.03125 13.429688 57.914062 Z M 12.695312 62.683594 C 12.554688 62.578125 12.417969 62.472656 12.292969 62.371094 C 12.226562 62.320312 12.167969 62.269531 12.113281 62.21875 C 12.058594 62.167969 12.003906 62.117188 11.960938 62.066406 C 11.730469 61.820312 11.5625 61.59375 11.414062 61.371094 C 11.339844 61.257812 11.265625 61.148438 11.195312 61.039062 C 11.121094 60.925781 11.050781 60.816406 10.976562 60.699219 L 10.160156 59.890625 L 10.890625 60.601562 L 11.117188 60.820312 L 11.355469 61.027344 C 11.515625 61.167969 11.671875 61.304688 11.828125 61.4375 C 12.136719 61.710938 12.433594 61.980469 12.707031 62.230469 C 13.09375 62.585938 13.277344 62.953125 13.5625 63.3125 C 13.285156 63.109375 12.984375 62.890625 12.695312 62.683594 Z M 7.871094 50.03125 C 7.828125 50.132812 7.621094 50.027344 7.414062 49.867188 C 7.308594 49.789062 7.207031 49.691406 7.128906 49.605469 C 7.046875 49.515625 6.988281 49.433594 6.964844 49.382812 C 6.839844 49.082031 6.71875 48.800781 6.59375 48.535156 C 6.527344 48.402344 6.472656 48.269531 6.417969 48.140625 C 6.359375 48.011719 6.304688 47.886719 6.25 47.761719 C 6.136719 47.511719 6.023438 47.277344 5.90625 47.046875 C 5.796875 46.8125 5.699219 46.582031 5.59375 46.359375 C 5.488281 46.136719 5.382812 45.914062 5.277344 45.695312 L 5.199219 45.53125 L 5.128906 45.363281 C 5.082031 45.25 5.035156 45.136719 4.988281 45.023438 C 4.894531 44.796875 4.800781 44.570312 4.710938 44.335938 C 4.664062 44.21875 4.617188 44.097656 4.578125 43.976562 C 4.539062 43.855469 4.5 43.730469 4.460938 43.605469 C 4.34375 43.214844 4.25 42.296875 4.308594 41.992188 C 4.386719 41.484375 4.640625 41.511719 4.675781 40.914062 C 4.679688 40.726562 4.707031 40.578125 4.726562 40.46875 C 4.75 40.355469 4.769531 40.277344 4.796875 40.230469 C 4.84375 40.136719 4.894531 40.164062 4.949219 40.28125 C 4.972656 40.339844 5 40.421875 5.027344 40.519531 C 5.054688 40.617188 5.085938 40.734375 5.121094 40.863281 C 5.191406 41.125 5.261719 41.441406 5.335938 41.78125 C 5.367188 41.929688 5.394531 42.074219 5.425781 42.222656 C 5.460938 42.367188 5.496094 42.511719 5.53125 42.652344 C 5.597656 42.9375 5.660156 43.207031 5.71875 43.453125 C 5.769531 43.703125 5.832031 43.917969 5.878906 44.09375 C 5.925781 44.273438 5.964844 44.40625 5.984375 44.488281 C 6.054688 44.710938 6.121094 44.921875 6.1875 45.121094 C 6.25 45.320312 6.328125 45.503906 6.390625 45.679688 C 6.523438 46.027344 6.644531 46.339844 6.75 46.621094 C 6.988281 47.179688 7.175781 47.621094 7.316406 48.042969 C 7.460938 48.414062 7.613281 48.871094 7.71875 49.257812 C 7.746094 49.351562 7.769531 49.445312 7.789062 49.527344 C 7.8125 49.613281 7.832031 49.6875 7.847656 49.757812 C 7.878906 49.890625 7.886719 49.988281 7.871094 50.03125 Z M 5.207031 53.621094 L 4.957031 53.050781 L 5.328125 53.609375 Z M 4.195312 37.789062 C 4.132812 38.613281 4.003906 39.113281 3.734375 38.609375 C 3.585938 38.339844 3.472656 37.96875 3.402344 37.53125 C 3.34375 37.09375 3.316406 36.589844 3.3125 36.050781 C 3.324219 35.515625 3.378906 34.949219 3.4375 34.386719 C 3.515625 33.820312 3.625 33.261719 3.722656 32.734375 C 3.832031 32.214844 3.960938 31.621094 4.070312 31.011719 C 4.140625 30.707031 4.207031 30.398438 4.265625 30.09375 C 4.332031 29.785156 4.378906 29.480469 4.449219 29.1875 C 5.316406 24.96875 7.042969 20.921875 9.496094 17.371094 C 11.941406 13.816406 15.101562 10.75 18.746094 8.40625 C 18.878906 8.320312 19.015625 8.230469 19.160156 8.136719 C 19.308594 8.046875 19.460938 7.957031 19.613281 7.863281 C 19.917969 7.679688 20.230469 7.488281 20.519531 7.304688 C 21.117188 6.964844 21.621094 6.652344 21.824219 6.460938 C 22.246094 6.089844 22.640625 5.785156 23.019531 5.542969 C 23.398438 5.304688 23.765625 5.144531 24.121094 5.019531 C 24.300781 4.960938 24.476562 4.910156 24.648438 4.871094 C 24.828125 4.839844 25.003906 4.820312 25.179688 4.804688 C 25.53125 4.78125 25.886719 4.789062 26.253906 4.820312 C 26.464844 4.84375 26.921875 4.78125 27.363281 4.722656 C 27.585938 4.695312 27.800781 4.664062 27.984375 4.652344 C 28.167969 4.644531 28.316406 4.648438 28.398438 4.671875 C 29 4.859375 29.136719 5.1875 29.457031 5.460938 L 28.628906 5.675781 L 28.21875 5.789062 L 27.808594 5.917969 C 27.265625 6.089844 26.71875 6.246094 26.183594 6.441406 C 26.011719 6.5 25.84375 6.554688 25.664062 6.605469 C 25.488281 6.660156 25.304688 6.707031 25.113281 6.769531 C 24.734375 6.894531 24.308594 7.023438 23.808594 7.195312 C 23.480469 7.316406 23.132812 7.484375 22.765625 7.675781 C 22.675781 7.722656 22.582031 7.773438 22.488281 7.820312 C 22.398438 7.875 22.304688 7.929688 22.214844 7.988281 C 22.027344 8.097656 21.835938 8.210938 21.644531 8.324219 C 21.453125 8.441406 21.25 8.542969 21.054688 8.664062 C 20.859375 8.777344 20.660156 8.890625 20.453125 8.992188 C 20.25 9.097656 20.039062 9.191406 19.824219 9.277344 C 19.617188 9.367188 19.398438 9.449219 19.179688 9.519531 C 19.097656 9.542969 18.914062 9.664062 18.667969 9.84375 C 18.605469 9.886719 18.539062 9.933594 18.472656 9.988281 C 18.40625 10.042969 18.335938 10.101562 18.261719 10.160156 C 18.117188 10.285156 17.960938 10.414062 17.792969 10.554688 C 17.632812 10.691406 17.457031 10.832031 17.289062 10.980469 C 17.121094 11.132812 16.949219 11.289062 16.785156 11.4375 C 16.617188 11.589844 16.449219 11.734375 16.289062 11.875 C 16.128906 12.011719 15.984375 12.152344 15.839844 12.273438 C 14.160156 13.710938 12.625 15.347656 11.269531 17.105469 C 11.09375 17.316406 10.933594 17.546875 10.773438 17.769531 C 10.609375 17.996094 10.449219 18.21875 10.285156 18.441406 C 9.972656 18.898438 9.675781 19.359375 9.371094 19.816406 C 9.226562 20.050781 9.085938 20.285156 8.945312 20.519531 L 8.734375 20.871094 C 8.660156 20.988281 8.589844 21.105469 8.527344 21.222656 C 8.394531 21.460938 8.261719 21.699219 8.132812 21.9375 C 8 22.175781 7.863281 22.410156 7.746094 22.652344 C 7.597656 22.957031 7.445312 23.261719 7.296875 23.5625 C 7.261719 23.636719 7.222656 23.710938 7.191406 23.785156 L 7.089844 24.015625 C 7.027344 24.167969 6.960938 24.320312 6.898438 24.472656 C 6.835938 24.625 6.769531 24.777344 6.707031 24.929688 L 6.613281 25.15625 L 6.53125 25.386719 C 6.421875 25.695312 6.316406 26.003906 6.207031 26.3125 C 6.09375 26.617188 6.011719 26.933594 5.921875 27.242188 C 5.835938 27.558594 5.742188 27.871094 5.660156 28.1875 C 5.589844 28.507812 5.519531 28.828125 5.445312 29.148438 C 5.410156 29.308594 5.375 29.472656 5.339844 29.632812 C 5.3125 29.796875 5.285156 29.960938 5.257812 30.128906 C 5.222656 30.324219 5.1875 30.523438 5.148438 30.722656 C 5.113281 30.925781 5.0625 31.125 5.035156 31.328125 C 4.96875 31.734375 4.894531 32.144531 4.816406 32.550781 C 4.773438 32.753906 4.753906 32.957031 4.71875 33.160156 C 4.6875 33.363281 4.65625 33.566406 4.625 33.765625 C 4.59375 33.964844 4.558594 34.164062 4.53125 34.355469 C 4.507812 34.554688 4.484375 34.746094 4.460938 34.9375 C 4.335938 35.796875 4.28125 36.960938 4.195312 37.789062 Z M 6.90625 20.285156 C 6.976562 20.121094 7.0625 19.960938 7.140625 19.800781 C 7.300781 19.484375 7.464844 19.167969 7.644531 18.863281 C 7.902344 18.449219 8.183594 18.050781 8.460938 17.65625 C 8.597656 17.457031 8.75 17.269531 8.898438 17.078125 L 9.34375 16.503906 C 9.136719 16.851562 8.925781 17.195312 8.707031 17.558594 C 8.503906 17.929688 8.292969 18.320312 8.0625 18.75 C 7.933594 18.910156 7.820312 19.082031 7.703125 19.25 C 7.585938 19.417969 7.472656 19.585938 7.355469 19.753906 C 7.242188 19.921875 7.125 20.085938 7.011719 20.257812 L 6.691406 20.773438 C 6.761719 20.609375 6.835938 20.449219 6.90625 20.285156 Z M 11.828125 12.035156 C 11.945312 11.910156 12.085938 11.832031 12.222656 11.738281 L 12.035156 11.949219 L 11.855469 12.171875 L 11.472656 12.472656 C 11.589844 12.324219 11.703125 12.160156 11.828125 12.035156 Z M 16.128906 9.570312 C 16.144531 9.554688 16.210938 9.582031 16.253906 9.589844 C 15.910156 9.875 15.5625 10.160156 15.21875 10.445312 C 15.203125 10.457031 15.125 10.433594 15.078125 10.429688 C 15.425781 10.140625 15.773438 9.851562 16.128906 9.570312 Z M 16.589844 6.511719 L 17.574219 5.894531 C 17.738281 5.789062 17.910156 5.699219 18.078125 5.601562 L 18.585938 5.320312 C 19.253906 4.933594 19.960938 4.613281 20.652344 4.273438 C 20.628906 4.386719 20.773438 4.449219 20.550781 4.628906 C 20.277344 4.851562 19.984375 5.058594 19.679688 5.246094 L 19.449219 5.382812 L 19.21875 5.527344 C 19.0625 5.621094 18.90625 5.710938 18.746094 5.800781 C 18.585938 5.886719 18.421875 5.972656 18.257812 6.054688 C 18.09375 6.140625 17.929688 6.21875 17.765625 6.308594 C 17.441406 6.480469 17.109375 6.648438 16.78125 6.8125 C 16.589844 6.910156 16.464844 6.917969 16.316406 6.976562 C 16.398438 6.8125 16.464844 6.59375 16.589844 6.511719 Z M 27.667969 1.871094 L 27.871094 1.910156 L 27.425781 2.003906 Z M 33.746094 5.9375 C 33.722656 5.941406 33.699219 5.941406 33.671875 5.945312 C 33.6875 5.941406 33.699219 5.9375 33.710938 5.933594 C 33.714844 5.933594 33.726562 5.9375 33.746094 5.9375 Z M 34.535156 4.636719 C 34.726562 4.5625 35.035156 4.476562 35.394531 4.394531 C 35.578125 4.351562 35.773438 4.3125 35.972656 4.273438 C 36.167969 4.242188 36.371094 4.21875 36.570312 4.199219 C 36.96875 4.160156 37.347656 4.140625 37.632812 4.152344 C 37.945312 4.179688 38.519531 4.40625 38.425781 4.425781 C 38.253906 4.46875 38.074219 4.507812 37.890625 4.546875 C 37.800781 4.566406 37.707031 4.585938 37.617188 4.605469 L 37.339844 4.675781 C 36.96875 4.765625 36.609375 4.851562 36.277344 4.933594 C 36.019531 4.898438 35.789062 4.890625 35.582031 4.882812 C 35.375 4.875 35.199219 4.867188 35.042969 4.859375 C 34.730469 4.84375 34.519531 4.832031 34.398438 4.800781 C 34.28125 4.777344 34.347656 4.707031 34.535156 4.636719 Z M 65.554688 27.246094 C 65.617188 27.519531 65.710938 27.867188 65.785156 28.167969 C 65.855469 28.472656 65.894531 28.738281 65.882812 28.847656 C 65.847656 29.152344 65.695312 29.144531 65.570312 29.207031 C 65.546875 28.964844 65.523438 28.714844 65.5 28.46875 C 65.46875 28.171875 65.421875 27.890625 65.40625 27.636719 C 65.386719 27.378906 65.5 27.367188 65.554688 27.246094 Z M 12.507812 17.160156 C 12.625 16.960938 12.75 16.765625 12.875 16.566406 C 13.101562 16.234375 13.332031 15.894531 13.578125 15.550781 C 13.839844 15.214844 14.109375 14.875 14.402344 14.527344 C 14.699219 14.179688 15.03125 13.84375 15.375 13.488281 C 15.417969 13.441406 15.464844 13.398438 15.507812 13.355469 C 15.554688 13.3125 15.601562 13.269531 15.648438 13.226562 C 15.742188 13.140625 15.835938 13.054688 15.933594 12.96875 C 16.128906 12.792969 16.328125 12.617188 16.539062 12.4375 C 16.824219 12.203125 17.097656 11.996094 17.34375 11.800781 C 17.46875 11.703125 17.589844 11.609375 17.703125 11.523438 C 17.816406 11.433594 17.933594 11.359375 18.039062 11.285156 C 18.476562 10.988281 18.820312 10.75 19.113281 10.605469 C 19.550781 10.394531 19.824219 10.34375 19.972656 10.480469 C 17.125 12.277344 14.601562 14.539062 12.507812 17.160156 Z M 10.675781 18.921875 C 10.695312 18.738281 10.726562 18.554688 10.753906 18.367188 C 11.023438 18.0625 11.324219 17.660156 11.53125 17.5 C 11.578125 17.460938 11.585938 17.535156 11.5625 17.640625 C 11.542969 17.746094 11.503906 17.882812 11.445312 17.972656 C 11.238281 18.285156 10.933594 18.601562 10.675781 18.921875 Z M 5.652344 33.011719 C 5.652344 32.851562 5.660156 32.691406 5.671875 32.535156 C 5.679688 32.375 5.6875 32.210938 5.699219 32.050781 C 5.710938 31.890625 5.722656 31.730469 5.734375 31.566406 C 5.742188 31.40625 5.753906 31.242188 5.78125 31.078125 C 5.835938 30.660156 5.902344 30.289062 5.972656 29.96875 C 6.003906 29.804688 6.046875 29.65625 6.09375 29.519531 C 6.140625 29.382812 6.183594 29.257812 6.234375 29.144531 C 6.421875 28.6875 6.617188 28.40625 6.847656 28.28125 C 6.871094 28.269531 6.898438 28.253906 6.921875 28.238281 C 6.460938 29.992188 6.152344 31.808594 6.011719 33.675781 C 6.007812 33.691406 6.003906 33.707031 5.996094 33.722656 C 5.941406 33.917969 5.882812 34.121094 5.824219 34.320312 C 5.777344 34.523438 5.726562 34.726562 5.679688 34.917969 C 5.671875 34.757812 5.664062 34.597656 5.660156 34.441406 C 5.652344 34.28125 5.65625 34.125 5.65625 33.964844 C 5.65625 33.648438 5.65625 33.328125 5.652344 33.011719 Z M 12.96875 58.304688 C 12.707031 58.066406 12.4375 57.828125 12.171875 57.578125 C 12.15625 57.558594 12.128906 57.417969 12.105469 57.335938 C 12.230469 57.464844 12.363281 57.585938 12.5 57.707031 C 12.632812 57.832031 12.765625 57.953125 12.898438 58.082031 C 12.921875 58.105469 12.945312 58.226562 12.96875 58.304688 Z M 60.738281 61.34375 C 60.539062 61.511719 60.359375 61.65625 60.203125 61.777344 C 60.042969 61.898438 59.902344 61.996094 59.785156 62.074219 C 59.660156 62.148438 59.558594 62.195312 59.472656 62.226562 C 59.140625 62.347656 59.132812 62.136719 59.410156 61.660156 C 59.578125 61.34375 59.914062 60.90625 60.285156 60.429688 C 60.636719 59.96875 61.003906 59.460938 61.316406 59.011719 L 60.582031 59.667969 L 60.179688 60.019531 C 60.042969 60.136719 59.902344 60.246094 59.761719 60.359375 L 58.929688 61.027344 C 58.644531 61.242188 58.355469 61.449219 58.066406 61.660156 C 58.457031 61.050781 58.273438 60.863281 58.253906 60.554688 C 58.246094 60.402344 58.269531 60.207031 58.421875 59.921875 C 58.496094 59.777344 58.601562 59.609375 58.75 59.40625 C 58.898438 59.203125 59.089844 58.972656 59.3125 58.679688 C 59.703125 58.183594 60.03125 57.730469 60.351562 57.230469 C 60.199219 57.382812 60.046875 57.535156 59.886719 57.6875 C 59.726562 57.832031 59.570312 57.980469 59.417969 58.136719 C 59.195312 58.363281 58.980469 58.601562 58.75 58.824219 L 58.054688 59.484375 L 57.707031 59.8125 L 57.34375 60.128906 L 56.617188 60.753906 C 56.371094 60.960938 56.117188 61.152344 55.867188 61.351562 L 55.488281 61.648438 L 55.300781 61.796875 L 55.105469 61.9375 C 54.585938 62.308594 54.074219 62.695312 53.535156 63.035156 C 53.269531 63.207031 53.027344 63.402344 52.789062 63.601562 C 52.546875 63.792969 52.304688 63.988281 52.054688 64.175781 C 52.464844 64.066406 52.90625 63.949219 53.277344 63.851562 C 53.734375 63.742188 54.125 63.691406 54.546875 63.613281 C 53.949219 64.042969 53.308594 64.589844 52.742188 64.859375 C 52.582031 64.9375 52.414062 65.023438 52.234375 65.113281 C 52.058594 65.203125 51.871094 65.296875 51.679688 65.375 C 51.296875 65.546875 50.902344 65.714844 50.546875 65.867188 C 49.820312 66.144531 49.234375 66.324219 49.148438 66.277344 C 48.519531 65.9375 47.03125 66.523438 44.847656 67.132812 C 42.882812 67.679688 40.863281 68.023438 38.835938 68.175781 C 36.804688 68.328125 34.769531 68.300781 32.75 68.09375 C 31.839844 67.976562 31.050781 67.855469 30.480469 67.660156 C 29.910156 67.476562 29.542969 67.300781 29.472656 67.109375 C 29.410156 66.957031 29.476562 66.816406 29.652344 66.707031 C 29.832031 66.589844 30.117188 66.496094 30.496094 66.453125 C 30.761719 66.421875 31.042969 66.421875 31.339844 66.441406 C 31.636719 66.445312 31.945312 66.472656 32.257812 66.519531 C 32.886719 66.628906 33.542969 66.746094 34.160156 66.9375 C 34.410156 67.019531 34.6875 67.058594 34.96875 67.09375 C 35.253906 67.125 35.539062 67.144531 35.816406 67.144531 C 35.957031 67.148438 36.09375 67.136719 36.222656 67.121094 C 36.355469 67.109375 36.480469 67.089844 36.601562 67.070312 C 36.839844 67.027344 37.050781 66.972656 37.214844 66.902344 C 37.539062 66.765625 36.988281 66.546875 36.773438 66.367188 C 36.730469 66.335938 36.308594 66.339844 36.175781 66.304688 C 36.019531 66.265625 35.886719 66.21875 35.777344 66.175781 C 35.667969 66.136719 35.578125 66.09375 35.515625 66.058594 C 35.480469 66.039062 35.453125 66.019531 35.429688 66.003906 C 35.621094 66.007812 35.8125 66.011719 36.003906 66.011719 C 52.617188 66.011719 66.082031 52.542969 66.082031 35.933594 C 66.082031 33.632812 65.824219 31.394531 65.335938 29.246094 C 65.417969 29.28125 65.5 29.3125 65.585938 29.363281 C 65.582031 29.347656 65.582031 29.332031 65.582031 29.316406 C 65.707031 29.484375 65.84375 29.664062 65.964844 29.855469 C 66.109375 30.074219 66.25 30.296875 66.390625 30.515625 C 66.527344 30.726562 66.667969 30.929688 66.800781 31.097656 C 66.933594 31.269531 67.050781 31.410156 67.171875 31.496094 C 67.382812 31.652344 67.574219 31.839844 67.761719 32.210938 C 67.957031 32.582031 68.105469 33.140625 68.265625 34.035156 C 68.28125 34.113281 68.292969 34.1875 68.308594 34.261719 C 68.320312 34.332031 68.328125 34.40625 68.339844 34.472656 C 68.359375 34.609375 68.378906 34.734375 68.402344 34.851562 C 68.445312 35.082031 68.488281 35.277344 68.53125 35.433594 C 68.617188 35.742188 68.707031 35.902344 68.796875 35.929688 C 68.972656 35.980469 69.144531 35.484375 69.277344 34.566406 C 69.328125 34.246094 69.355469 33.933594 69.390625 33.621094 C 69.421875 33.308594 69.457031 32.996094 69.492188 32.6875 C 69.511719 32.53125 69.523438 32.378906 69.53125 32.226562 L 69.566406 31.761719 C 69.585938 31.453125 69.605469 31.144531 69.628906 30.835938 C 69.648438 30.214844 69.65625 29.589844 69.652344 28.945312 C 69.640625 28.625 69.625 28.300781 69.605469 27.972656 C 69.582031 27.644531 69.570312 27.304688 69.523438 26.96875 C 69.4375 26.292969 69.355469 25.582031 69.1875 24.855469 C 69.109375 24.488281 69.03125 24.113281 68.929688 23.730469 C 68.820312 23.351562 68.703125 22.964844 68.578125 22.566406 C 68.054688 20.984375 67.300781 19.253906 66.160156 17.425781 L 66.203125 17.566406 C 66.128906 17.628906 66.125 17.84375 65.960938 17.722656 C 65.707031 17.542969 65.328125 17.132812 65.003906 16.828125 C 64.910156 16.453125 64.6875 15.980469 64.691406 15.773438 C 64.695312 15.640625 65.015625 15.914062 65.195312 16.011719 C 65.285156 16.136719 65.367188 16.265625 65.453125 16.394531 L 66.203125 17.566406 C 66.203125 17.566406 66.160156 17.4375 66.160156 17.429688 C 65.871094 16.988281 65.585938 16.535156 65.289062 16.089844 C 64.785156 15.453125 64.277344 14.753906 63.757812 14.21875 C 63.5625 14.007812 63.332031 13.847656 63.09375 13.695312 C 62.855469 13.542969 62.605469 13.410156 62.386719 13.246094 C 62.164062 13.082031 61.964844 12.894531 61.816406 12.632812 C 61.667969 12.378906 61.554688 12.0625 61.519531 11.632812 C 61.515625 11.570312 61.433594 11.425781 61.304688 11.230469 C 61.238281 11.136719 61.160156 11.027344 61.070312 10.90625 C 60.980469 10.792969 60.875 10.671875 60.765625 10.542969 C 60.546875 10.289062 60.300781 10.015625 60.054688 9.753906 C 59.933594 9.621094 59.804688 9.496094 59.679688 9.378906 C 59.554688 9.261719 59.433594 9.152344 59.320312 9.050781 C 55.871094 5.960938 51.796875 3.535156 47.382812 1.996094 C 45.175781 1.222656 42.890625 0.671875 40.570312 0.351562 C 38.253906 0.0351562 35.910156 -0.0585938 33.570312 0.0820312 C 29.320312 0.316406 25.089844 1.375 21.191406 3.136719 C 17.292969 4.898438 13.710938 7.355469 10.683594 10.367188 C 9.980469 11.082031 9.390625 11.902344 8.804688 12.710938 C 9.054688 12.527344 9.320312 12.335938 9.574219 12.148438 C 9.828125 11.96875 10.085938 11.816406 10.292969 11.707031 C 10.5 11.605469 10.484375 11.921875 10.453125 11.957031 C 10.015625 12.402344 9.625 12.886719 9.214844 13.355469 C 9.113281 13.476562 9.007812 13.589844 8.910156 13.714844 L 8.625 14.082031 L 8.046875 14.820312 C 7.949219 14.941406 7.859375 15.070312 7.769531 15.195312 L 6.960938 16.34375 L 6.453125 17.128906 L 6.203125 17.523438 C 6.117188 17.65625 6.035156 17.789062 5.957031 17.921875 C 4.679688 20.066406 3.621094 22.34375 2.816406 24.710938 C 2.710938 25.023438 2.5625 25.316406 2.425781 25.613281 C 2.289062 25.910156 2.144531 26.207031 2.015625 26.511719 C 2.066406 26.21875 2.101562 25.925781 2.144531 25.632812 L 2.179688 25.410156 C 2.195312 25.339844 2.210938 25.265625 2.230469 25.191406 C 2.265625 25.046875 2.304688 24.898438 2.351562 24.75 C 2.457031 24.425781 2.570312 24.09375 2.6875 23.761719 C 2.816406 23.4375 2.953125 23.109375 3.085938 22.789062 C 3.34375 22.136719 3.644531 21.515625 3.882812 20.910156 C 3.9375 20.777344 3.988281 20.644531 4.039062 20.515625 C 4.09375 20.386719 4.144531 20.257812 4.191406 20.132812 C 4.292969 19.878906 4.382812 19.628906 4.472656 19.382812 C 4.640625 18.882812 4.839844 18.410156 5.050781 17.914062 C 4.480469 18.761719 3.925781 19.621094 3.472656 20.546875 C 1.136719 25.457031 -0.0507812 30.925781 0 36.335938 C 0.00390625 36.613281 0.0078125 36.890625 0.0117188 37.167969 L 0.0117188 37.792969 L 0.0234375 38 C 0.046875 38.550781 0.0742188 39.09375 0.117188 39.621094 C 0.183594 40.148438 0.265625 40.65625 0.367188 41.132812 C 0.414062 41.371094 0.484375 41.597656 0.5625 41.8125 C 0.636719 42.03125 0.71875 42.238281 0.808594 42.433594 L 0.734375 41.359375 L 0.707031 40.28125 C 0.679688 39.566406 0.714844 38.851562 0.734375 38.144531 C 0.738281 38.027344 0.742188 37.882812 0.75 37.757812 C 0.761719 37.636719 0.777344 37.542969 0.796875 37.527344 C 0.933594 37.410156 1.101562 37.121094 1.214844 37.441406 C 1.261719 37.597656 1.347656 38.042969 1.414062 38.457031 C 1.484375 38.875 1.535156 39.265625 1.527344 39.324219 C 1.457031 39.878906 1.449219 40.496094 1.464844 41.152344 C 1.476562 41.476562 1.515625 41.8125 1.550781 42.15625 C 1.570312 42.328125 1.589844 42.503906 1.609375 42.679688 C 1.628906 42.855469 1.652344 43.03125 1.6875 43.207031 C 1.75 43.5625 1.820312 43.921875 1.894531 44.285156 C 1.933594 44.464844 1.960938 44.652344 2.011719 44.832031 C 2.058594 45.011719 2.105469 45.195312 2.152344 45.375 C 2.246094 45.738281 2.339844 46.105469 2.441406 46.46875 C 2.554688 46.832031 2.667969 47.191406 2.777344 47.550781 C 2.929688 48.078125 3.113281 48.59375 3.164062 48.914062 C 3.21875 49.230469 3.15625 49.347656 2.878906 49.039062 C 2.566406 48.6875 2.457031 48.742188 2.503906 49.089844 C 2.527344 49.261719 2.59375 49.507812 2.6875 49.808594 C 2.730469 49.960938 2.792969 50.121094 2.863281 50.296875 C 2.933594 50.46875 3.011719 50.652344 3.09375 50.847656 C 3.417969 51.644531 3.824219 52.40625 4.210938 53.179688 C 4.636719 53.929688 5.050781 54.6875 5.53125 55.402344 L 5.925781 56.011719 C 6.054688 56.21875 6.203125 56.410156 6.339844 56.605469 L 6.761719 57.195312 C 6.902344 57.394531 7.042969 57.589844 7.195312 57.777344 L 8.09375 58.914062 L 9.046875 60.007812 C 10.339844 61.441406 11.746094 62.769531 13.242188 63.988281 L 14.386719 64.875 L 15.566406 65.714844 C 15.761719 65.855469 15.96875 65.984375 16.171875 66.113281 L 16.78125 66.503906 C 16.988281 66.628906 17.1875 66.765625 17.398438 66.882812 L 18.023438 67.246094 L 18.65625 67.601562 C 18.863281 67.722656 19.082031 67.824219 19.296875 67.9375 L 19.941406 68.265625 C 20.15625 68.375 20.371094 68.484375 20.59375 68.582031 L 21.917969 69.171875 C 22.363281 69.355469 22.816406 69.527344 23.265625 69.703125 C 25.078125 70.375 26.941406 70.902344 28.832031 71.289062 C 30.726562 71.660156 32.648438 71.871094 34.570312 71.949219 L 36.011719 71.980469 L 37.453125 71.9375 L 37.8125 71.925781 C 37.933594 71.921875 38.054688 71.910156 38.175781 71.902344 L 39.613281 71.785156 C 39.851562 71.761719 40.089844 71.726562 40.328125 71.699219 L 41.046875 71.605469 C 41.285156 71.570312 41.523438 71.542969 41.761719 71.496094 L 43.183594 71.234375 C 44.121094 71.023438 45.0625 70.8125 45.988281 70.53125 C 50.375 69.253906 54.503906 67.121094 58.089844 64.316406 C 58.503906 63.984375 58.914062 63.667969 59.265625 63.332031 C 59.625 63 59.957031 62.691406 60.238281 62.386719 C 60.515625 62.074219 60.75 61.78125 60.933594 61.515625 C 61.023438 61.382812 61.101562 61.257812 61.167969 61.136719 C 61.21875 61.035156 61.257812 60.933594 61.289062 60.839844 C 61.207031 60.921875 61.128906 61 61.050781 61.070312 C 60.941406 61.167969 60.835938 61.257812 60.738281 61.34375 " fill-opacity="1" fill-rule="nonzero"/></g><path fill="#00b7ed" d="M 61.289062 60.839844 C 61.320312 60.8125 61.347656 60.78125 61.378906 60.75 C 61.367188 60.757812 61.304688 60.792969 61.304688 60.792969 C 61.300781 60.808594 61.292969 60.824219 61.289062 60.839844 " fill-opacity="1" fill-rule="nonzero"/><g clip-path="url(#2553f218c3)"><path fill="#00b7ed" d="M 71.515625 37.0625 C 71.488281 36.734375 71.445312 36.46875 71.386719 36.277344 C 71.273438 35.898438 71.113281 35.820312 70.941406 36.097656 C 70.433594 36.910156 69.945312 37.730469 69.390625 38.324219 C 69.277344 38.449219 69.15625 38.652344 69.035156 38.917969 C 68.976562 39.046875 68.917969 39.195312 68.851562 39.355469 C 68.785156 39.515625 68.714844 39.6875 68.644531 39.875 C 68.574219 40.058594 68.503906 40.257812 68.433594 40.464844 C 68.363281 40.671875 68.300781 40.890625 68.214844 41.113281 C 68.050781 41.5625 67.894531 42.050781 67.726562 42.554688 C 67.542969 43.054688 67.371094 43.582031 67.183594 44.113281 C 67.085938 44.378906 66.984375 44.644531 66.890625 44.914062 C 66.792969 45.179688 66.707031 45.457031 66.597656 45.71875 C 66.191406 46.792969 65.785156 47.851562 65.410156 48.820312 C 65.25 49.226562 65.195312 49.585938 65.085938 49.96875 C 65.242188 49.703125 65.394531 49.441406 65.550781 49.179688 C 65.628906 49.046875 65.703125 48.914062 65.78125 48.78125 C 65.820312 48.710938 65.859375 48.644531 65.898438 48.574219 C 65.933594 48.503906 65.96875 48.433594 66.003906 48.363281 C 66.296875 47.765625 66.609375 47.128906 66.859375 46.484375 C 66.800781 46.761719 66.765625 47.03125 66.703125 47.304688 C 66.640625 47.574219 66.570312 47.851562 66.46875 48.144531 C 65.84375 49.976562 65.054688 51.875 64.003906 53.484375 C 63.792969 53.796875 63.609375 54.078125 63.453125 54.328125 C 63.296875 54.578125 63.152344 54.785156 63.039062 54.972656 C 62.808594 55.34375 62.675781 55.613281 62.621094 55.792969 C 62.5 56.148438 62.699219 56.179688 63.03125 56.050781 C 63.828125 55.710938 64.183594 55.863281 63.992188 56.652344 C 63.894531 57.042969 63.636719 57.574219 63.230469 58.273438 C 63.015625 58.617188 62.753906 58.992188 62.453125 59.410156 C 62.378906 59.515625 62.300781 59.625 62.222656 59.734375 C 62.136719 59.839844 62.046875 59.945312 61.957031 60.058594 C 61.785156 60.269531 61.601562 60.492188 61.40625 60.71875 C 61.746094 60.472656 62.085938 60.214844 62.414062 59.941406 C 62.757812 59.632812 63.089844 59.304688 63.398438 58.960938 C 63.476562 58.875 63.554688 58.789062 63.628906 58.703125 C 63.699219 58.609375 63.769531 58.519531 63.835938 58.425781 C 63.972656 58.242188 64.101562 58.054688 64.222656 57.859375 C 64.34375 57.667969 64.457031 57.472656 64.5625 57.273438 C 64.660156 57.066406 64.746094 56.859375 64.824219 56.648438 C 64.96875 56.242188 65.101562 55.863281 65.210938 55.484375 C 65.3125 55.105469 65.40625 54.738281 65.5 54.367188 C 65.542969 54.183594 65.59375 54.003906 65.636719 53.816406 C 65.675781 53.625 65.71875 53.4375 65.757812 53.246094 C 65.84375 52.859375 65.941406 52.46875 66.039062 52.046875 C 66.121094 51.679688 66.21875 51.34375 66.34375 51.011719 C 66.40625 50.84375 66.484375 50.679688 66.554688 50.511719 C 66.625 50.34375 66.707031 50.171875 66.796875 49.996094 C 66.890625 49.820312 66.988281 49.644531 67.101562 49.457031 C 67.15625 49.363281 67.214844 49.269531 67.277344 49.175781 C 67.335938 49.078125 67.394531 48.976562 67.457031 48.871094 C 67.582031 48.664062 67.722656 48.449219 67.871094 48.21875 C 68.019531 47.988281 68.191406 47.75 68.351562 47.484375 L 68.375 47.3125 C 68.605469 47.019531 68.8125 46.789062 68.902344 46.855469 C 68.949219 46.886719 68.96875 46.996094 68.945312 47.207031 C 68.929688 47.308594 68.910156 47.441406 68.875 47.601562 C 68.839844 47.761719 68.796875 47.953125 68.726562 48.171875 C 68.632812 48.472656 68.53125 48.78125 68.421875 49.089844 C 68.371094 49.246094 68.316406 49.402344 68.261719 49.558594 C 68.199219 49.714844 68.136719 49.867188 68.074219 50.023438 C 67.953125 50.332031 67.828125 50.640625 67.703125 50.945312 C 67.644531 51.101562 67.578125 51.25 67.511719 51.398438 C 67.445312 51.546875 67.382812 51.695312 67.316406 51.84375 C 67.207031 52.101562 67.3125 52.234375 67.378906 52.3125 C 67.398438 52.339844 67.636719 52.003906 67.742188 51.804688 C 69.894531 47.613281 71.203125 42.960938 71.511719 38.242188 C 71.554688 37.792969 71.539062 37.394531 71.515625 37.0625 " fill-opacity="1" fill-rule="nonzero"/></g><path fill="#00b7ed" d="M 61.378906 60.75 C 61.390625 60.742188 61.398438 60.730469 61.40625 60.71875 C 61.375 60.742188 61.347656 60.765625 61.316406 60.785156 C 61.328125 60.78125 61.367188 60.757812 61.378906 60.75 " fill-opacity="1" fill-rule="nonzero"/><path fill="#00b7ed" d="M 54.148438 60.046875 C 53.101562 60.789062 52.03125 61.515625 50.902344 62.140625 C 50.347656 62.476562 49.765625 62.757812 49.199219 63.0625 C 48.914062 63.207031 48.617188 63.335938 48.328125 63.476562 C 48.039062 63.613281 47.753906 63.757812 47.453125 63.875 C 47.113281 64.019531 46.777344 64.171875 46.449219 64.320312 C 46.117188 64.460938 45.792969 64.59375 45.484375 64.730469 C 45.332031 64.796875 45.179688 64.867188 45.035156 64.929688 C 44.886719 64.992188 44.742188 65.046875 44.605469 65.105469 C 44.332031 65.21875 44.078125 65.328125 43.851562 65.429688 C 43.625 65.535156 43.425781 65.609375 43.261719 65.683594 C 43.097656 65.757812 42.96875 65.820312 42.882812 65.871094 C 42.707031 65.972656 42.703125 66.019531 42.925781 65.988281 C 43.664062 65.894531 44.449219 65.6875 45.25 65.46875 C 45.648438 65.339844 46.046875 65.210938 46.445312 65.082031 C 46.648438 65.019531 46.839844 64.941406 47.035156 64.867188 C 47.234375 64.796875 47.425781 64.722656 47.621094 64.648438 C 48.082031 64.488281 48.527344 64.265625 48.976562 64.066406 L 48.988281 64.082031 C 50.992188 63.15625 52.9375 62.035156 54.648438 60.675781 C 54.902344 60.46875 55.199219 60.152344 55.414062 59.882812 C 55.632812 59.617188 55.753906 59.378906 55.695312 59.355469 C 55.539062 59.300781 54.648438 59.667969 54.148438 60.046875 " fill-opacity="1" fill-rule="nonzero"/><path fill="#00b7ed" d="M 60.511719 53.871094 C 60.398438 53.988281 60.277344 54.113281 60.152344 54.242188 C 59.875 54.53125 59.589844 54.878906 59.292969 55.230469 C 58.984375 55.574219 58.679688 55.933594 58.386719 56.273438 C 58.144531 56.53125 57.796875 57.058594 57.84375 57.089844 C 57.953125 57.164062 58.207031 57.171875 58.539062 56.898438 C 58.839844 56.664062 59.136719 56.34375 59.472656 56 C 59.554688 55.910156 59.640625 55.820312 59.726562 55.730469 C 59.769531 55.683594 59.8125 55.636719 59.859375 55.589844 C 59.902344 55.539062 59.941406 55.492188 59.984375 55.441406 C 60.15625 55.242188 60.335938 55.035156 60.519531 54.824219 C 60.609375 54.671875 60.703125 54.519531 60.789062 54.363281 C 60.871094 54.207031 60.953125 54.046875 61.039062 53.890625 C 61.121094 53.730469 61.207031 53.570312 61.289062 53.410156 C 61.375 53.25 61.460938 53.09375 61.535156 52.929688 C 61.425781 53.042969 61.3125 53.144531 61.195312 53.246094 C 61.082031 53.347656 60.96875 53.445312 60.855469 53.546875 C 60.742188 53.648438 60.628906 53.757812 60.511719 53.871094 " fill-opacity="1" fill-rule="nonzero"/><path fill="#00b7ed" d="M 64.433594 46.257812 C 64.289062 46.484375 64.121094 46.738281 64.085938 46.855469 C 64.03125 47.035156 63.980469 47.210938 63.933594 47.386719 C 63.890625 47.558594 63.847656 47.726562 63.800781 47.890625 C 63.707031 48.226562 63.617188 48.554688 63.523438 48.886719 C 63.644531 48.738281 63.769531 48.589844 63.914062 48.414062 C 63.988281 48.324219 64.066406 48.226562 64.152344 48.121094 C 64.242188 48.011719 64.339844 47.894531 64.4375 47.757812 C 64.574219 46.976562 64.714844 46.34375 64.710938 45.878906 C 64.710938 45.839844 64.578125 46.03125 64.433594 46.257812 " fill-opacity="1" fill-rule="nonzero"/><path fill="#00b7ed" d="M 61.144531 58.738281 C 61.125 58.726562 60.976562 58.84375 60.886719 58.898438 C 61.035156 58.914062 61.183594 58.933594 61.328125 58.945312 C 61.265625 58.878906 61.21875 58.789062 61.144531 58.738281 " fill-opacity="1" fill-rule="nonzero"/><path fill="#00b7ed" d="M 61.328125 58.945312 C 61.335938 58.953125 61.339844 58.957031 61.34375 58.960938 C 61.347656 58.960938 61.351562 58.957031 61.359375 58.957031 C 61.34375 58.972656 61.332031 58.992188 61.316406 59.011719 L 61.386719 58.953125 C 61.367188 58.949219 61.347656 58.949219 61.328125 58.945312 " fill-opacity="1" fill-rule="nonzero"/><path fill="#00b7ed" d="M 68.441406 47.378906 L 68.375 47.3125 C 68.375 47.3125 68.355469 47.460938 68.351562 47.472656 C 68.355469 47.460938 68.441406 47.378906 68.441406 47.378906 " fill-opacity="1" fill-rule="nonzero"/><g transform="matrix(1, 0, 0, 1, 19, 3)"><g clip-path="url(#39e9064e34)"><g fill="#ffffff" fill-opacity="1"><g transform="translate(0.53011, 48.984001)"><g><path d="M 10.59375 -32.34375 L 10.59375 -13 C 10.59375 -11.0625 11.066406 -9.566406 12.015625 -8.515625 C 12.972656 -7.472656 14.375 -6.953125 16.21875 -6.953125 C 18.0625 -6.953125 19.472656 -7.472656 20.453125 -8.515625 C 21.441406 -9.566406 21.9375 -11.0625 21.9375 -13 L 21.9375 -32.34375 L 29.8125 -32.34375 L 29.8125 -13.046875 C 29.8125 -10.148438 29.195312 -7.703125 27.96875 -5.703125 C 26.738281 -3.710938 25.085938 -2.207031 23.015625 -1.1875 C 20.941406 -0.175781 18.628906 0.328125 16.078125 0.328125 C 13.523438 0.328125 11.242188 -0.171875 9.234375 -1.171875 C 7.222656 -2.171875 5.632812 -3.675781 4.46875 -5.6875 C 3.300781 -7.695312 2.71875 -10.148438 2.71875 -13.046875 L 2.71875 -32.34375 Z M 10.59375 -32.34375 "/></g></g></g></g></g></svg>